# xmcd CD database file
#
# Track frame offsets:
#	150
#	25776
#	43215
#	64382
#	84305
#	109264
#	128994
#	147525
#	168255
#	186259
#
# Disc length: 2800 seconds
#
# Revision: 0
# Processed by: cddbd v1.5.2PL0 Copyright (c) Steve Scherf et al.
# Submitted via: CDex 1.51
#
DISCID=900aee0a
DTITLE=Varius - Karma Lounge CD3
DYEAR=2005
DGENRE=New Age
TTITLE0=Naava - Pure Land (Manna Mix)
TTITLE1=The Waves - Along The River (Original Mix)
TTITLE2=Idris - Kiss Of Life (Future Mix)
TTITLE3=Eastern Rhythm - Late Night Grooves
TTITLE4=Ti.Ra. - Storms (Addict Mix)
TTITLE5=Faith Keepers - Rain (Cool Mix)
TTITLE6=Guardians - My Goddess (Colour Mix)
TTITLE7=Ravindra Dance - Back To The Purity (Live Mix)
TTITLE8=Rock Of Gold - Shine (Dub)
TTITLE9=Tariq - Spiritual Signs (Light Mix)
EXTD=YEAR: 2005
EXTT0=
EXTT1=
EXTT2=
EXTT3=
EXTT4=
EXTT5=
EXTT6=
EXTT7=
EXTT8=
EXTT9=
PLAYORDER=
